<?xml version="1.0" encoding="utf-8"?>
<!-- Generator: Adobe Illustrator 27.0.0, SVG Export Plug-In . SVG Version: 6.00 Build 0)  -->
<svg version="1.1" id="artwork" xmlns="http://www.w3.org/2000/svg" xmlns:xlink="http://www.w3.org/1999/xlink" x="0px" y="0px"
	 viewBox="0 0 135 40" style="enable-background:new 0 0 135 40;" xml:space="preserve">
<style type="text/css">
	.st0{fill:#231815;}
</style>
<g id="_Group_">
	<g id="_Group_2">
		<g id="_Group_3">
			<path id="_Path_" class="st0" d="M31.1,20.3c0-1.8,0.9-3.4,2.4-4.3c-0.9-1.4-2.5-2.2-4.1-2.2c-1.7-0.2-3.4,1-4.3,1
				c-0.9,0-2.3-1-3.7-1c-1.9,0.1-3.7,1.1-4.6,2.8c-2,3.5-0.5,8.5,1.4,11.3c1,1.4,2.1,2.9,3.5,2.8c1.4-0.1,2-0.9,3.7-0.9
				c1.7,0,2.2,0.9,3.7,0.9c1.5,0,2.5-1.4,3.4-2.8c0.7-1,1.2-2.1,1.6-3.2C32.2,24.1,31.1,22.3,31.1,20.3z"/>
			<path id="_Path_2" class="st0" d="M28.2,12c0.8-1,1.3-2.3,1.2-3.6c-1.3,0.1-2.5,0.7-3.3,1.7c-0.8,1-1.3,2.2-1.2,3.5
				C26.2,13.6,27.4,13,28.2,12z"/>
		</g>
	</g>
	<g>
		<path class="st0" d="M49.2,27.4h-4.9l-1.2,3.5H41L45.7,18h2.2l4.6,12.8h-2.1L49.2,27.4z M44.8,25.8h3.9l-1.9-5.6h-0.1L44.8,25.8z"
			/>
		<path class="st0" d="M62.4,26.2c0,2.9-1.6,4.8-3.9,4.8c-1.2,0.1-2.4-0.6-2.9-1.6h0v4.6h-1.9V21.5h1.9V23h0c0.6-1.1,1.8-1.7,3-1.7
			C60.9,21.4,62.4,23.3,62.4,26.2z M60.5,26.2c0-1.9-1-3.1-2.5-3.1c-1.5,0-2.5,1.3-2.5,3.1c0,1.9,1,3.1,2.5,3.1
			C59.5,29.3,60.5,28.1,60.5,26.2z"/>
		<path class="st0" d="M72.7,26.2c0,2.9-1.6,4.8-3.9,4.8c-1.2,0.1-2.4-0.6-2.9-1.6h0v4.6h-1.9V21.5h1.9V23h0c0.6-1.1,1.8-1.7,3-1.7
			C71.2,21.4,72.7,23.3,72.7,26.2z M70.8,26.2c0-1.9-1-3.1-2.5-3.1c-1.5,0-2.5,1.3-2.5,3.1c0,1.9,1,3.1,2.5,3.1
			C69.8,29.3,70.8,28.1,70.8,26.2L70.8,26.2z"/>
		<path class="st0" d="M79.5,27.3c0.1,1.3,1.4,2.1,3.1,2.1c1.6,0,2.8-0.8,2.8-2c0-1-0.7-1.6-2.4-2L81.4,25c-2.4-0.6-3.4-1.7-3.4-3.5
			c0-2.2,1.9-3.7,4.7-3.7c2.7,0,4.6,1.5,4.6,3.7h-1.9c-0.1-1.3-1.2-2.1-2.7-2.1c-1.5,0-2.6,0.8-2.6,1.9c0,0.9,0.7,1.4,2.3,1.8
			l1.4,0.3c2.6,0.6,3.7,1.7,3.7,3.6c0,2.4-1.9,3.9-5,3.9c-2.8,0-4.8-1.5-4.9-3.8C77.6,27.3,79.5,27.3,79.5,27.3z"/>
		<path class="st0" d="M91.5,19.3v2.2h1.8V23h-1.8v5.2c0,0.8,0.4,1.2,1.1,1.2c0.2,0,0.4,0,0.6,0v1.5c-0.4,0.1-0.7,0.1-1.1,0.1
			c-1.9,0-2.6-0.7-2.6-2.5V23h-1.4v-1.5h1.4v-2.2L91.5,19.3L91.5,19.3z"/>
		<path class="st0" d="M94.4,26.2c0-2.9,1.7-4.8,4.4-4.8c2.7,0,4.4,1.8,4.4,4.8c0,3-1.7,4.8-4.4,4.8S94.4,29.1,94.4,26.2z
			 M101.3,26.2c0-2-0.9-3.2-2.5-3.2c-1.6,0-2.5,1.2-2.5,3.2c0,2,0.9,3.2,2.5,3.2C100.3,29.4,101.3,28.2,101.3,26.2L101.3,26.2z"/>
		<path class="st0" d="M104.8,21.5h1.8v1.6h0c0.3-1,1.2-1.7,2.2-1.7c0.2,0,0.4,0,0.7,0.1v1.8c-0.3-0.1-0.6-0.1-0.9-0.1
			c-1.1,0-2,0.8-2,1.9c0,0.1,0,0.2,0,0.3v5.5h-1.9V21.5z"/>
		<path class="st0" d="M118.4,28.1c-0.3,1.7-1.9,2.9-4,2.9c-2.7,0-4.4-1.8-4.4-4.7c0-2.9,1.7-4.8,4.3-4.8c2.6,0,4.2,1.8,4.2,4.6v0.7
			h-6.6v0.1c-0.1,1.3,0.9,2.5,2.2,2.6c0.1,0,0.2,0,0.3,0c0.9,0.1,1.8-0.4,2.2-1.3C116.6,28.1,118.4,28.1,118.4,28.1z M111.9,25.3
			h4.7c0.1-1.2-0.9-2.3-2.1-2.4c-0.1,0-0.1,0-0.2,0C113,22.9,112,24,111.9,25.3C111.9,25.3,111.9,25.3,111.9,25.3z"/>
	</g>
</g>
<g id="_Group_4">
	<g>
		<path class="st0" d="M44.5,8.4c1.5-0.1,2.8,1,2.9,2.5c0,0.2,0,0.4,0,0.5c0,2-1.1,3.1-2.9,3.1h-2.2V8.4H44.5z M43.3,13.7h1.2
			c1.1,0.1,2-0.8,2-1.8c0-0.1,0-0.3,0-0.4c0.1-1.1-0.6-2-1.7-2.2c-0.1,0-0.2,0-0.4,0h-1.2L43.3,13.7L43.3,13.7z"/>
		<path class="st0" d="M48.5,12.2c-0.1-1.2,0.8-2.3,2-2.4c1.2-0.1,2.3,0.8,2.4,2c0,0.1,0,0.3,0,0.4c0.1,1.2-0.8,2.3-2,2.4
			c-1.2,0.1-2.3-0.8-2.4-2C48.5,12.5,48.5,12.3,48.5,12.2z M52,12.2c0-1-0.5-1.6-1.2-1.6c-0.8,0-1.2,0.6-1.2,1.6
			c0,1,0.4,1.6,1.2,1.6C51.5,13.8,52,13.2,52,12.2L52,12.2z"/>
		<path class="st0" d="M58.7,14.5h-1l-1-3.4h-0.1l-1,3.4h-0.9l-1.3-4.7h0.9l0.8,3.5h0.1l1-3.5h0.9l1,3.5h0.1l0.8-3.5H60L58.7,14.5z"
			/>
		<path class="st0" d="M61.1,9.9H62v0.7H62c0.2-0.5,0.8-0.9,1.4-0.8c0.8-0.1,1.6,0.6,1.6,1.4c0,0.1,0,0.2,0,0.3v3h-0.9v-2.8
			c0-0.7-0.3-1.1-1-1.1c-0.6,0-1.1,0.4-1.1,1c0,0.1,0,0.1,0,0.2v2.7h-0.9L61.1,9.9L61.1,9.9z"/>
		<path class="st0" d="M66.5,8.1h0.9v6.5h-0.9V8.1z"/>
		<path class="st0" d="M68.7,12.2c-0.1-1.2,0.8-2.3,2-2.4c1.2-0.1,2.3,0.8,2.4,2c0,0.1,0,0.3,0,0.4c0.1,1.2-0.8,2.3-2,2.4
			c-1.2,0.1-2.3-0.8-2.4-2C68.7,12.5,68.7,12.3,68.7,12.2z M72.1,12.2c0-1-0.5-1.6-1.2-1.6c-0.8,0-1.2,0.6-1.2,1.6
			c0,1,0.4,1.6,1.2,1.6C71.7,13.8,72.1,13.2,72.1,12.2z"/>
		<path class="st0" d="M74.1,13.2c0-0.8,0.6-1.3,1.7-1.4l1.3-0.1v-0.4c0-0.5-0.3-0.8-1-0.8c-0.5,0-0.9,0.2-1,0.5h-0.9
			c0.1-0.8,0.8-1.3,1.9-1.3c1.2,0,1.8,0.6,1.8,1.6v3.2h-0.9v-0.7H77c-0.3,0.5-0.8,0.8-1.4,0.7c-0.8,0.1-1.5-0.5-1.5-1.3
			C74.1,13.3,74.1,13.3,74.1,13.2z M77,12.8v-0.4l-1.1,0.1c-0.6,0-0.9,0.3-0.9,0.7c0,0.4,0.4,0.7,0.9,0.7C76.4,13.9,77,13.5,77,12.8
			C77,12.8,77,12.8,77,12.8z"/>
		<path class="st0" d="M79.2,12.2c0-1.5,0.8-2.4,1.9-2.4c0.6,0,1.1,0.3,1.4,0.8h0.1V8.1h0.9v6.5h-0.9v-0.7h-0.1
			c-0.3,0.5-0.9,0.8-1.5,0.8C79.9,14.6,79.2,13.7,79.2,12.2z M80.1,12.2c0,1,0.5,1.6,1.2,1.6c0.8,0,1.3-0.6,1.3-1.6
			c0-1-0.5-1.6-1.3-1.6C80.6,10.6,80.1,11.2,80.1,12.2L80.1,12.2z"/>
		<path class="st0" d="M87.3,12.2c-0.1-1.2,0.8-2.3,2-2.4c1.2-0.1,2.3,0.8,2.4,2c0,0.1,0,0.3,0,0.4c0.1,1.2-0.8,2.3-2,2.4
			s-2.3-0.8-2.4-2C87.3,12.5,87.3,12.3,87.3,12.2z M90.7,12.2c0-1-0.5-1.6-1.2-1.6c-0.8,0-1.2,0.6-1.2,1.6c0,1,0.4,1.6,1.2,1.6
			C90.3,13.8,90.7,13.2,90.7,12.2z"/>
		<path class="st0" d="M92.9,9.9h0.9v0.7h0.1c0.2-0.5,0.8-0.9,1.4-0.8c0.8-0.1,1.6,0.6,1.6,1.4c0,0.1,0,0.2,0,0.3v3h-0.9v-2.8
			c0-0.7-0.3-1.1-1-1.1c-0.6,0-1.1,0.4-1.1,1c0,0.1,0,0.1,0,0.2v2.7h-0.9C92.9,14.5,92.9,9.9,92.9,9.9z"/>
		<path class="st0" d="M102.1,8.7v1.2h1v0.8h-1v2.4c0,0.5,0.2,0.7,0.7,0.7c0.1,0,0.2,0,0.3,0v0.8c-0.2,0-0.3,0-0.5,0
			c-1,0-1.4-0.4-1.4-1.3v-2.6h-0.7V9.9h0.7V8.7H102.1z"/>
		<path class="st0" d="M104.3,8.1h0.9v2.6h0.1c0.2-0.5,0.8-0.9,1.4-0.8c0.8,0,1.6,0.6,1.6,1.4c0,0.1,0,0.2,0,0.3v3h-0.9v-2.8
			c0-0.7-0.3-1.1-1-1.1c-0.6,0-1.1,0.4-1.2,1c0,0.1,0,0.1,0,0.2v2.7h-0.9L104.3,8.1L104.3,8.1z"/>
		<path class="st0" d="M113.7,13.3c-0.3,0.9-1.1,1.4-2,1.3c-1.2,0-2.1-0.9-2.2-2.1c0-0.1,0-0.2,0-0.3c-0.2-1.2,0.7-2.3,1.8-2.4
			c0.1,0,0.2,0,0.3,0c1.3,0,2.1,0.9,2.1,2.3v0.3h-3.3v0.1c-0.1,0.7,0.4,1.3,1.1,1.3c0,0,0.1,0,0.1,0c0.4,0.1,0.9-0.2,1.1-0.6H113.7z
			 M110.4,11.8h2.3c0-0.6-0.4-1.2-1-1.2c0,0-0.1,0-0.1,0C111,10.6,110.4,11.1,110.4,11.8C110.4,11.8,110.4,11.8,110.4,11.8
			L110.4,11.8z"/>
	</g>
</g>
<g>
	<g>
		<path class="st0" d="M130,0L130,0c-0.4,0-0.7,0.3-0.7,0.6s0.3,0.6,0.6,0.6h0.1c0.4,0,0.6-0.3,0.6-0.6S130.4,0,130,0L130,0L130,0z
			 M126.9,0L126.9,0c-0.4,0-0.7,0.3-0.7,0.6s0.3,0.6,0.6,0.6h0.1c0.4,0,0.6-0.3,0.6-0.6S127.3,0,126.9,0L126.9,0z M123.9,0L123.9,0
			c-0.4,0-0.7,0.3-0.7,0.6s0.3,0.6,0.7,0.6h0.1c0.4,0,0.7-0.3,0.7-0.6S124.2,0,123.9,0L123.9,0z M120.8,0L120.8,0
			c-0.4,0-0.7,0.3-0.7,0.6s0.3,0.6,0.7,0.6h0.1c0.4,0,0.7-0.3,0.7-0.6S121.2,0,120.8,0L120.8,0z M117.8,0L117.8,0
			c-0.4,0-0.7,0.3-0.7,0.6s0.3,0.6,0.6,0.6h0.1c0.4,0,0.6-0.3,0.6-0.6S118.1,0,117.8,0L117.8,0z M114.7,0L114.7,0
			c-0.4,0-0.7,0.3-0.7,0.6s0.3,0.6,0.7,0.6h0.1c0.4,0,0.7-0.3,0.7-0.6S115.1,0,114.7,0L114.7,0z M111.7,0L111.7,0
			c-0.4,0-0.7,0.3-0.7,0.6s0.3,0.6,0.7,0.6h0.1c0.4,0,0.7-0.3,0.7-0.6S112,0,111.7,0L111.7,0z M108.6,0L108.6,0
			c-0.4,0-0.7,0.3-0.7,0.6s0.3,0.6,0.6,0.6h0.1c0.4,0,0.6-0.3,0.6-0.6S109,0,108.6,0L108.6,0z M105.6,0L105.6,0
			c-0.4,0-0.7,0.3-0.7,0.6s0.3,0.6,0.6,0.6h0.1c0.4,0,0.7-0.3,0.7-0.6S105.9,0,105.6,0L105.6,0z M102.5,0L102.5,0
			c-0.4,0-0.7,0.3-0.7,0.6s0.3,0.6,0.7,0.6h0.1c0.4,0,0.7-0.3,0.7-0.6S102.9,0,102.5,0L102.5,0z M99.4,0L99.4,0
			c-0.4,0-0.7,0.3-0.7,0.6s0.3,0.6,0.6,0.6h0.1c0.4,0,0.6-0.3,0.6-0.6S99.8,0,99.4,0L99.4,0z M96.4,0L96.4,0c-0.4,0-0.7,0.3-0.7,0.6
			s0.3,0.6,0.6,0.6h0.1C96.8,1.3,97,1,97,0.6S96.8,0,96.4,0L96.4,0z M93.3,0L93.3,0c-0.4,0-0.7,0.3-0.7,0.6s0.3,0.6,0.7,0.6h0.1
			C93.7,1.3,94,1,94,0.6S93.7,0,93.3,0L93.3,0z M90.3,0L90.3,0c-0.4,0-0.7,0.3-0.7,0.6s0.3,0.6,0.7,0.6h0.1c0.4,0,0.6-0.3,0.6-0.6
			S90.6,0,90.3,0L90.3,0z M87.2,0L87.2,0c-0.4,0-0.7,0.3-0.7,0.6s0.3,0.6,0.6,0.6h0.1c0.4,0,0.6-0.3,0.6-0.6S87.6,0,87.2,0L87.2,0z
			 M84.2,0L84.2,0c-0.4,0-0.7,0.3-0.7,0.6s0.3,0.6,0.7,0.6h0.1c0.4,0,0.7-0.3,0.7-0.6S84.5,0,84.2,0L84.2,0z M81.1,0L81.1,0
			c-0.4,0-0.7,0.3-0.7,0.6s0.3,0.6,0.7,0.6h0.1c0.4,0,0.6-0.3,0.6-0.6S81.5,0,81.1,0L81.1,0z M78.1,0L78.1,0c-0.4,0-0.7,0.3-0.7,0.6
			s0.3,0.6,0.7,0.6h0.1c0.4,0,0.7-0.3,0.7-0.6S78.4,0,78.1,0L78.1,0z M75,0L75,0c-0.4,0-0.7,0.3-0.7,0.6s0.3,0.6,0.7,0.6H75
			c0.4,0,0.7-0.3,0.7-0.6S75.4,0,75,0L75,0z M72,0L72,0c-0.4,0-0.7,0.3-0.7,0.6s0.3,0.6,0.7,0.6H72c0.4,0,0.7-0.3,0.7-0.6
			S72.3,0,72,0L72,0z M68.9,0L68.9,0c-0.4,0-0.7,0.3-0.7,0.6s0.3,0.6,0.7,0.6h0.1c0.4,0,0.6-0.3,0.6-0.6S69.3,0,68.9,0L68.9,0z
			 M65.8,0L65.8,0c-0.4,0-0.7,0.3-0.7,0.6s0.3,0.6,0.7,0.6h0.1c0.4,0,0.7-0.3,0.7-0.6S66.2,0,65.8,0L65.8,0z M62.8,0L62.8,0
			c-0.4,0-0.7,0.3-0.7,0.6s0.3,0.6,0.7,0.6h0.1c0.4,0,0.7-0.3,0.7-0.6S63.1,0,62.8,0L62.8,0z M59.7,0L59.7,0C59.3,0,59,0.3,59,0.6
			s0.3,0.6,0.7,0.6h0.1c0.4,0,0.7-0.3,0.7-0.6S60.1,0,59.7,0L59.7,0z M56.7,0L56.7,0C56.3,0,56,0.3,56,0.6s0.3,0.6,0.7,0.6h0.1
			c0.4,0,0.7-0.3,0.7-0.6S57,0,56.7,0L56.7,0z M53.6,0L53.6,0c-0.4,0-0.7,0.3-0.7,0.6s0.3,0.6,0.7,0.6h0.1c0.4,0,0.7-0.3,0.7-0.6
			S54,0,53.6,0L53.6,0z M50.6,0L50.6,0c-0.4,0-0.7,0.3-0.7,0.6s0.3,0.6,0.7,0.6h0.1c0.4,0,0.7-0.3,0.7-0.6S50.9,0,50.6,0L50.6,0z
			 M47.5,0L47.5,0c-0.4,0-0.7,0.3-0.7,0.6s0.3,0.6,0.7,0.6h0.1c0.4,0,0.7-0.3,0.7-0.6S47.9,0,47.5,0L47.5,0z M44.5,0L44.5,0
			c-0.4,0-0.7,0.3-0.7,0.6s0.3,0.6,0.7,0.6h0.1c0.4,0,0.7-0.3,0.7-0.6S44.8,0,44.5,0L44.5,0z M41.4,0L41.4,0c-0.4,0-0.7,0.3-0.7,0.6
			s0.3,0.6,0.7,0.6h0.1c0.4,0,0.7-0.3,0.7-0.6S41.8,0,41.4,0L41.4,0z M38.3,0L38.3,0c-0.4,0-0.7,0.3-0.7,0.6s0.3,0.6,0.7,0.6h0.1
			C38.7,1.3,39,1,39,0.6S38.7,0,38.3,0L38.3,0z M35.3,0L35.3,0c-0.4,0-0.7,0.3-0.7,0.6s0.3,0.6,0.7,0.6h0.1c0.4,0,0.7-0.3,0.7-0.6
			S35.7,0,35.3,0L35.3,0z M32.2,0L32.2,0c-0.4,0-0.7,0.3-0.7,0.6s0.3,0.6,0.6,0.6h0.1c0.4,0,0.7-0.3,0.7-0.6S32.6,0,32.2,0L32.2,0z
			 M29.2,0L29.2,0c-0.4,0-0.7,0.3-0.7,0.6s0.3,0.6,0.6,0.6h0.1c0.4,0,0.6-0.3,0.6-0.6S29.5,0,29.2,0L29.2,0z M26.1,0L26.1,0
			c-0.4,0-0.7,0.3-0.7,0.6s0.3,0.6,0.6,0.6h0.1c0.4,0,0.6-0.3,0.6-0.6S26.5,0,26.1,0L26.1,0z M23.1,0L23.1,0c-0.4,0-0.7,0.3-0.7,0.6
			s0.3,0.6,0.6,0.6h0.1c0.4,0,0.6-0.3,0.6-0.6S23.4,0,23.1,0L23.1,0z M20,0L20,0c-0.4,0-0.7,0.3-0.7,0.6s0.3,0.6,0.6,0.6H20
			c0.4,0,0.6-0.3,0.6-0.6S20.4,0,20,0L20,0z M17,0L17,0c-0.4,0-0.7,0.3-0.7,0.6s0.3,0.6,0.6,0.6H17c0.4,0,0.6-0.3,0.6-0.6
			S17.3,0,17,0L17,0z M13.9,0L13.9,0c-0.4,0-0.7,0.3-0.7,0.6s0.3,0.6,0.6,0.6h0.1c0.4,0,0.6-0.3,0.6-0.6S14.3,0,13.9,0L13.9,0z
			 M10.9,0L10.9,0c-0.4,0-0.7,0.3-0.7,0.6s0.3,0.6,0.6,0.6h0.1c0.4,0,0.6-0.3,0.6-0.6S11.2,0,10.9,0L10.9,0z M7.8,0L7.8,0
			C7.4,0,7.1,0.3,7.1,0.6s0.3,0.6,0.7,0.6h0.1c0.4,0,0.6-0.3,0.6-0.6S8.2,0,7.8,0L7.8,0z M4.8,0C4.8,0,4.8,0,4.8,0
			C4.7,0,4.7,0,4.8,0L4.8,0C4.7,0,4.7,0,4.8,0C4.7,0,4.7,0,4.8,0C4.7,0,4.7,0,4.8,0C4.3,0,4.1,0.3,4.1,0.7c0,0.3,0.3,0.6,0.7,0.6
			c0,0,0,0,0,0l0,0c0.4,0,0.6-0.3,0.6-0.7C5.4,0.3,5.1,0,4.8,0L4.8,0z M2.3,0.9c-0.1,0-0.3,0-0.4,0.1c0,0,0,0,0,0l0,0c0,0,0,0,0,0
			c0,0,0,0,0,0c0,0,0,0,0,0c0,0,0,0,0,0c0,0,0,0,0,0C1.6,1.3,1.6,1.7,1.8,2c0.1,0.2,0.3,0.2,0.5,0.2c0.1,0,0.3,0,0.4-0.1l0,0
			C3,1.9,3.1,1.5,2.8,1.2C2.7,1,2.5,0.9,2.3,0.9L2.3,0.9z M0.8,3.1c-0.3,0-0.5,0.2-0.6,0.5c0,0,0,0,0,0c0,0,0,0,0,0v0c0,0,0,0,0,0
			C0.1,3.9,0.3,4.3,0.6,4.4c0.1,0,0.1,0,0.2,0c0.3,0,0.5-0.2,0.6-0.5l0,0C1.6,3.6,1.4,3.2,1,3.1C1,3.1,0.9,3.1,0.8,3.1L0.8,3.1z
			 M0.6,5.9C0.3,5.9,0,6.2,0,6.6v0.1C0,7,0.3,7.3,0.6,7.3S1.3,7,1.3,6.6V6.6C1.3,6.2,1,5.9,0.6,5.9L0.6,5.9z M0.6,9
			C0.3,9,0,9.3,0,9.6v0.1c0,0.4,0.3,0.6,0.6,0.6S1.3,10,1.3,9.7V9.6C1.3,9.3,1,9,0.6,9L0.6,9z M0.6,12C0.3,12,0,12.3,0,12.7v0.1
			c0,0.4,0.3,0.6,0.6,0.6s0.6-0.3,0.6-0.6v-0.1C1.3,12.3,1,12,0.6,12L0.6,12z M0.6,15.1c-0.4,0-0.6,0.3-0.6,0.6v0.1
			c0,0.4,0.3,0.6,0.6,0.6s0.6-0.3,0.6-0.6v-0.1C1.3,15.4,1,15.1,0.6,15.1L0.6,15.1z M0.6,18.1c-0.4,0-0.6,0.3-0.6,0.7v0.1
			c0,0.4,0.3,0.6,0.6,0.6s0.6-0.3,0.6-0.6v-0.1C1.3,18.4,1,18.1,0.6,18.1L0.6,18.1z M0.6,21.2c-0.4,0-0.6,0.3-0.6,0.6v0.1
			c0,0.4,0.3,0.6,0.6,0.6s0.6-0.3,0.6-0.6v-0.1C1.3,21.5,1,21.2,0.6,21.2L0.6,21.2z M0.6,24.2c-0.4,0-0.6,0.3-0.6,0.6V25
			c0,0.4,0.3,0.6,0.6,0.6s0.6-0.3,0.6-0.6v-0.1C1.3,24.5,1,24.2,0.6,24.2L0.6,24.2z M0.6,27.3C0.3,27.3,0,27.6,0,28V28
			c0,0.4,0.3,0.6,0.6,0.6s0.6-0.3,0.6-0.6V28C1.3,27.6,1,27.3,0.6,27.3L0.6,27.3z M0.6,30.4C0.3,30.4,0,30.7,0,31v0.1
			c0,0.4,0.3,0.6,0.6,0.6s0.6-0.3,0.6-0.6V31C1.3,30.7,1,30.4,0.6,30.4L0.6,30.4z M0.6,33.4c-0.4,0-0.6,0.3-0.6,0.7v0.1
			c0,0.4,0.3,0.7,0.6,0.7s0.6-0.3,0.6-0.7v-0.1C1.3,33.7,1,33.4,0.6,33.4L0.6,33.4z M1,36.1c-0.1,0-0.2,0-0.3,0.1
			c-0.3,0.1-0.5,0.5-0.3,0.9c0,0,0,0,0,0c0,0,0,0,0,0c0,0,0,0,0,0c0.1,0.2,0.3,0.4,0.6,0.4c0.1,0,0.2,0,0.3-0.1
			c0.3-0.2,0.5-0.5,0.3-0.9l0,0C1.5,36.3,1.3,36.1,1,36.1L1,36.1z M2.8,38.1c-0.2,0-0.4,0.1-0.6,0.3c-0.2,0.3-0.1,0.7,0.2,0.9
			c0,0,0,0,0,0l0,0c0,0,0,0,0,0c0,0,0,0,0,0c0.1,0.1,0.2,0.1,0.3,0.1c0.2,0,0.4-0.1,0.6-0.3c0.2-0.3,0.1-0.7-0.2-0.9l0,0
			C3,38.1,2.9,38.1,2.8,38.1L2.8,38.1z M5.4,38.7L5.4,38.7c-0.4,0-0.7,0.3-0.7,0.7S5,40,5.4,40h0.1c0.4,0,0.7-0.3,0.7-0.7
			S5.8,38.7,5.4,38.7L5.4,38.7z M8.5,38.7L8.5,38.7c-0.4,0-0.7,0.3-0.7,0.7S8.1,40,8.4,40h0.1c0.4,0,0.6-0.3,0.6-0.7
			S8.8,38.7,8.5,38.7L8.5,38.7z M11.5,38.7L11.5,38.7c-0.4,0-0.7,0.3-0.7,0.7s0.3,0.6,0.6,0.6h0.1c0.4,0,0.6-0.3,0.6-0.7
			S11.9,38.7,11.5,38.7L11.5,38.7z M14.6,38.7L14.6,38.7c-0.4,0-0.7,0.3-0.7,0.7s0.3,0.6,0.6,0.6h0.1c0.4,0,0.6-0.3,0.6-0.7
			S15,38.7,14.6,38.7L14.6,38.7z M17.7,38.7L17.7,38.7c-0.4,0-0.7,0.3-0.7,0.7s0.3,0.6,0.6,0.6h0.1c0.4,0,0.6-0.3,0.6-0.7
			S18,38.7,17.7,38.7L17.7,38.7z M20.7,38.7L20.7,38.7c-0.4,0-0.7,0.3-0.7,0.7s0.3,0.6,0.7,0.6h0.1c0.4,0,0.6-0.3,0.6-0.7
			S21.1,38.7,20.7,38.7L20.7,38.7z M23.8,38.7L23.8,38.7c-0.4,0-0.7,0.3-0.7,0.7s0.3,0.6,0.6,0.6h0.1c0.4,0,0.6-0.3,0.6-0.7
			S24.1,38.7,23.8,38.7L23.8,38.7z M26.8,38.7L26.8,38.7c-0.4,0-0.7,0.3-0.7,0.7s0.3,0.6,0.6,0.6h0.1c0.4,0,0.6-0.3,0.6-0.7
			S27.2,38.7,26.8,38.7L26.8,38.7z M29.9,38.7L29.9,38.7c-0.4,0-0.7,0.3-0.7,0.7s0.3,0.6,0.6,0.6h0.1c0.4,0,0.6-0.3,0.6-0.7
			S30.2,38.7,29.9,38.7L29.9,38.7z M32.9,38.7L32.9,38.7c-0.4,0-0.7,0.3-0.7,0.7s0.3,0.6,0.7,0.6h0.1c0.4,0,0.7-0.3,0.7-0.7
			S33.3,38.7,32.9,38.7L32.9,38.7z M36,38.7L36,38.7c-0.4,0-0.7,0.3-0.7,0.7s0.3,0.6,0.7,0.6H36c0.4,0,0.7-0.3,0.7-0.7
			S36.3,38.7,36,38.7L36,38.7z M39,38.7L39,38.7c-0.4,0-0.7,0.3-0.7,0.7S38.6,40,39,40H39c0.4,0,0.7-0.3,0.7-0.7S39.4,38.7,39,38.7
			L39,38.7z M42.1,38.7L42.1,38.7c-0.4,0-0.7,0.3-0.7,0.7S41.7,40,42,40h0.1c0.4,0,0.7-0.3,0.7-0.7S42.5,38.7,42.1,38.7L42.1,38.7z
			 M45.2,38.7L45.2,38.7c-0.4,0-0.7,0.3-0.7,0.7s0.3,0.6,0.7,0.6h0.1c0.4,0,0.7-0.3,0.7-0.7S45.5,38.7,45.2,38.7L45.2,38.7z
			 M48.2,38.7L48.2,38.7c-0.4,0-0.7,0.3-0.7,0.7s0.3,0.6,0.7,0.6h0.1c0.4,0,0.7-0.3,0.7-0.7S48.6,38.7,48.2,38.7L48.2,38.7z
			 M51.3,38.7L51.3,38.7c-0.4,0-0.7,0.3-0.7,0.7s0.3,0.6,0.7,0.6h0.1c0.4,0,0.7-0.3,0.7-0.7S51.6,38.7,51.3,38.7L51.3,38.7z
			 M54.3,38.7L54.3,38.7c-0.4,0-0.7,0.3-0.7,0.7s0.3,0.6,0.7,0.6h0.1c0.4,0,0.7-0.3,0.7-0.7S54.7,38.7,54.3,38.7L54.3,38.7z
			 M57.4,38.7L57.4,38.7c-0.4,0-0.7,0.3-0.7,0.7S57,40,57.3,40h0.1c0.4,0,0.7-0.3,0.7-0.7S57.7,38.7,57.4,38.7L57.4,38.7z
			 M60.4,38.7L60.4,38.7c-0.4,0-0.7,0.3-0.7,0.7S60,40,60.4,40h0.1c0.4,0,0.7-0.3,0.7-0.7S60.8,38.7,60.4,38.7L60.4,38.7z
			 M63.5,38.7L63.5,38.7c-0.4,0-0.7,0.3-0.7,0.7s0.3,0.6,0.7,0.6h0.1c0.4,0,0.6-0.3,0.6-0.7S63.8,38.7,63.5,38.7L63.5,38.7z
			 M66.5,38.7L66.5,38.7c-0.4,0-0.7,0.3-0.7,0.7s0.3,0.6,0.7,0.6h0.1c0.4,0,0.7-0.3,0.7-0.7S66.9,38.7,66.5,38.7L66.5,38.7z
			 M69.6,38.7L69.6,38.7c-0.4,0-0.7,0.3-0.7,0.7s0.3,0.6,0.7,0.6h0.1c0.4,0,0.7-0.3,0.7-0.7S69.9,38.7,69.6,38.7L69.6,38.7z
			 M72.6,38.7L72.6,38.7c-0.4,0-0.7,0.3-0.7,0.7s0.3,0.6,0.7,0.6h0.1c0.4,0,0.7-0.3,0.7-0.7S73,38.7,72.6,38.7L72.6,38.7z
			 M75.7,38.7L75.7,38.7c-0.4,0-0.7,0.3-0.7,0.7s0.3,0.6,0.7,0.6h0.1c0.4,0,0.6-0.3,0.6-0.7S76.1,38.7,75.7,38.7L75.7,38.7z
			 M78.8,38.7L78.8,38.7c-0.4,0-0.7,0.3-0.7,0.7s0.3,0.6,0.6,0.6h0.1c0.4,0,0.7-0.3,0.7-0.7S79.1,38.7,78.8,38.7L78.8,38.7z
			 M81.8,38.7L81.8,38.7c-0.4,0-0.7,0.3-0.7,0.7s0.3,0.6,0.6,0.6h0.1c0.4,0,0.6-0.3,0.6-0.7S82.2,38.7,81.8,38.7L81.8,38.7z
			 M84.9,38.7L84.9,38.7c-0.4,0-0.7,0.3-0.7,0.7s0.3,0.6,0.7,0.6h0.1c0.4,0,0.6-0.3,0.6-0.7S85.2,38.7,84.9,38.7L84.9,38.7z
			 M87.9,38.7L87.9,38.7c-0.4,0-0.7,0.3-0.7,0.7s0.3,0.6,0.7,0.6h0.1c0.4,0,0.7-0.3,0.7-0.7S88.3,38.7,87.9,38.7L87.9,38.7z
			 M91,38.7L91,38.7c-0.4,0-0.7,0.3-0.7,0.7s0.3,0.6,0.6,0.6H91c0.4,0,0.6-0.3,0.6-0.7S91.3,38.7,91,38.7L91,38.7z M94,38.7L94,38.7
			c-0.4,0-0.7,0.3-0.7,0.7S93.6,40,94,40H94c0.4,0,0.6-0.3,0.6-0.7S94.4,38.7,94,38.7L94,38.7z M97.1,38.7L97.1,38.7
			c-0.4,0-0.7,0.3-0.7,0.7S96.7,40,97,40h0.1c0.4,0,0.7-0.3,0.7-0.7S97.4,38.7,97.1,38.7L97.1,38.7z M100.1,38.7L100.1,38.7
			c-0.4,0-0.7,0.3-0.7,0.7s0.3,0.6,0.6,0.6h0.1c0.4,0,0.7-0.3,0.7-0.7S100.5,38.7,100.1,38.7L100.1,38.7z M103.2,38.7L103.2,38.7
			c-0.4,0-0.7,0.3-0.7,0.7s0.3,0.6,0.7,0.6h0.1c0.4,0,0.6-0.3,0.6-0.7S103.6,38.7,103.2,38.7L103.2,38.7z M106.2,38.7L106.2,38.7
			c-0.4,0-0.7,0.3-0.7,0.7s0.3,0.7,0.7,0.7h0.1c0.4,0,0.7-0.3,0.7-0.7S106.6,38.7,106.2,38.7L106.2,38.7z M109.3,38.7L109.3,38.7
			c-0.4,0-0.7,0.3-0.7,0.7s0.3,0.6,0.6,0.6h0.1c0.4,0,0.7-0.3,0.7-0.7S109.7,38.7,109.3,38.7L109.3,38.7z M112.4,38.7L112.4,38.7
			c-0.4,0-0.7,0.3-0.7,0.7s0.3,0.7,0.6,0.7h0.1c0.4,0,0.6-0.3,0.6-0.7S112.7,38.7,112.4,38.7L112.4,38.7z M115.4,38.7L115.4,38.7
			c-0.4,0-0.7,0.3-0.7,0.7s0.3,0.7,0.7,0.7h0.1c0.4,0,0.7-0.3,0.7-0.7S115.8,38.7,115.4,38.7L115.4,38.7z M118.5,38.7L118.5,38.7
			c-0.4,0-0.7,0.3-0.7,0.7s0.3,0.7,0.7,0.7h0.1c0.4,0,0.7-0.3,0.7-0.7S118.8,38.7,118.5,38.7L118.5,38.7z M121.5,38.7L121.5,38.7
			c-0.4,0-0.7,0.3-0.7,0.7s0.3,0.6,0.7,0.6h0.1c0.4,0,0.6-0.3,0.6-0.7S121.9,38.7,121.5,38.7L121.5,38.7z M124.6,38.7L124.6,38.7
			c-0.4,0-0.7,0.3-0.7,0.7s0.3,0.7,0.7,0.7h0.1c0.4,0,0.7-0.3,0.7-0.7S124.9,38.7,124.6,38.7L124.6,38.7z M127.6,38.7L127.6,38.7
			c-0.4,0-0.7,0.3-0.7,0.7s0.3,0.7,0.7,0.7h0.1c0.4,0,0.7-0.3,0.7-0.7S128,38.7,127.6,38.7L127.6,38.7z M130.6,38.7
			C130.6,38.7,130.5,38.7,130.6,38.7l-0.1,0c-0.4,0-0.6,0.4-0.6,0.7c0,0.3,0.3,0.6,0.6,0.6c0,0,0.1,0,0.1,0c0,0,0,0,0,0c0,0,0,0,0,0
			c0,0,0,0,0,0c0,0,0,0,0,0c0,0,0,0,0,0c0.4-0.1,0.6-0.4,0.5-0.7C131.2,38.9,130.9,38.7,130.6,38.7L130.6,38.7z M133,37.5
			c-0.2,0-0.3,0.1-0.4,0.2l0,0c-0.3,0.2-0.3,0.7,0,0.9c0.1,0.1,0.3,0.2,0.5,0.2c0.2,0,0.3-0.1,0.4-0.2c0,0,0,0,0,0l0,0c0,0,0,0,0,0
			c0,0,0,0,0,0c0,0,0,0,0,0c0.3-0.2,0.3-0.7,0-0.9C133.3,37.6,133.1,37.5,133,37.5L133,37.5z M134.3,35.3c-0.3,0-0.6,0.2-0.6,0.5
			l0,0c-0.1,0.4,0.1,0.7,0.5,0.8c0,0,0.1,0,0.1,0c0.3,0,0.6-0.2,0.6-0.5c0,0,0,0,0,0v0c0,0,0,0,0,0v0c0,0,0,0,0,0c0,0,0,0,0,0
			c0.1-0.3-0.1-0.7-0.5-0.8C134.3,35.3,134.3,35.3,134.3,35.3L134.3,35.3z M134.4,32.3c-0.4,0-0.6,0.3-0.6,0.7V33
			c0,0.4,0.3,0.7,0.6,0.7c0.4,0,0.6-0.3,0.6-0.7V33C135,32.6,134.7,32.3,134.4,32.3L134.4,32.3z M134.4,29.3c-0.4,0-0.6,0.3-0.6,0.6
			V30c0,0.4,0.3,0.6,0.6,0.6c0.4,0,0.6-0.3,0.6-0.6v-0.1C135,29.6,134.7,29.3,134.4,29.3L134.4,29.3z M134.4,26.2
			c-0.4,0-0.6,0.3-0.6,0.6v0.1c0,0.4,0.3,0.6,0.6,0.6c0.4,0,0.6-0.3,0.6-0.6v-0.1C135,26.5,134.7,26.2,134.4,26.2L134.4,26.2z
			 M134.4,23.2c-0.4,0-0.6,0.3-0.6,0.6v0.1c0,0.4,0.3,0.6,0.6,0.6c0.4,0,0.6-0.3,0.6-0.6v-0.1C135,23.5,134.7,23.2,134.4,23.2
			L134.4,23.2z M134.4,20.1c-0.4,0-0.6,0.3-0.6,0.6v0.1c0,0.4,0.3,0.6,0.6,0.6c0.4,0,0.6-0.3,0.6-0.6v-0.1
			C135,20.4,134.7,20.1,134.4,20.1L134.4,20.1z M134.4,17.1c-0.4,0-0.6,0.3-0.6,0.6v0.1c0,0.4,0.3,0.6,0.6,0.6
			c0.4,0,0.6-0.3,0.6-0.6v-0.1C135,17.4,134.7,17.1,134.4,17.1L134.4,17.1z M134.4,14c-0.4,0-0.6,0.3-0.6,0.6v0.1
			c0,0.4,0.3,0.6,0.6,0.6c0.4,0,0.6-0.3,0.6-0.6v-0.1C135,14.3,134.7,14,134.4,14L134.4,14z M134.4,11c-0.4,0-0.6,0.3-0.6,0.6v0.1
			c0,0.4,0.3,0.6,0.6,0.6c0.4,0,0.6-0.3,0.6-0.6v-0.1C135,11.3,134.7,11,134.4,11L134.4,11z M134.4,7.9c-0.4,0-0.6,0.3-0.6,0.7v0.1
			c0,0.4,0.3,0.6,0.6,0.6c0.4,0,0.6-0.3,0.6-0.6V8.6C135,8.2,134.7,7.9,134.4,7.9L134.4,7.9z M134.4,4.8c-0.4,0-0.6,0.3-0.6,0.7v0.1
			c0,0.4,0.3,0.7,0.6,0.7c0.4,0,0.6-0.3,0.6-0.7V5.5C135,5.1,134.7,4.8,134.4,4.8L134.4,4.8z M133.8,2.2c-0.1,0-0.2,0-0.3,0.1
			c-0.3,0.2-0.4,0.6-0.2,0.9l0,0c0.1,0.2,0.3,0.3,0.6,0.3c0.1,0,0.2,0,0.3-0.1c0.3-0.2,0.4-0.6,0.3-0.9c0,0,0,0,0,0c0,0,0,0,0,0
			c0,0,0,0,0,0c0,0,0,0,0,0C134.2,2.3,134,2.2,133.8,2.2L133.8,2.2z M131.9,0.4c-0.2,0-0.5,0.1-0.6,0.4c-0.2,0.3,0,0.7,0.3,0.9l0,0
			c0.1,0,0.2,0.1,0.3,0.1c0.2,0,0.5-0.1,0.6-0.4c0.2-0.3,0-0.7-0.3-0.9c0,0,0,0,0,0c0,0,0,0,0,0c0,0,0,0,0,0h0c0,0,0,0,0,0
			C132.1,0.4,132,0.4,131.9,0.4L131.9,0.4z"/>
	</g>
</g>
</svg>
