<?xml version="1.0" encoding="utf-8"?>
<!-- Generator: Adobe Illustrator 27.0.0, SVG Export Plug-In . SVG Version: 6.00 Build 0)  -->
<svg version="1.1" id="artwork" xmlns="http://www.w3.org/2000/svg" xmlns:xlink="http://www.w3.org/1999/xlink" x="0px" y="0px"
	 viewBox="0 0 135 40" style="enable-background:new 0 0 135 40;" xml:space="preserve">
<style type="text/css">
	.st0{fill:#FFFFFF;}
	.st1{fill:#FFFFFF;stroke:#FFFFFF;stroke-width:0.2;stroke-miterlimit:10;}
	.st2{fill:url(#SVGID_1_);}
	.st3{fill:url(#SVGID_00000053538212758154267430000009969259403768538783_);}
	.st4{fill:url(#SVGID_00000047759031810251477430000008185910739130797977_);}
	.st5{fill:url(#SVGID_00000026853929413929708240000006648909257715954353_);}
	.st6{opacity:0.2;enable-background:new    ;}
	.st7{opacity:0.12;enable-background:new    ;}
	.st8{opacity:0.25;fill:#FFFFFF;enable-background:new    ;}
</style>
<g>
	<g>
		<g>
			<path class="st0" d="M130,0L130,0c-0.4,0-0.7,0.3-0.7,0.6s0.3,0.6,0.6,0.6h0.1c0.4,0,0.6-0.3,0.6-0.6S130.4,0,130,0L130,0L130,0z
				 M126.9,0L126.9,0c-0.4,0-0.7,0.3-0.7,0.6s0.3,0.6,0.6,0.6h0.1c0.4,0,0.6-0.3,0.6-0.6S127.3,0,126.9,0L126.9,0z M123.9,0L123.9,0
				c-0.4,0-0.7,0.3-0.7,0.6s0.3,0.6,0.7,0.6h0.1c0.4,0,0.7-0.3,0.7-0.6S124.2,0,123.9,0L123.9,0z M120.8,0L120.8,0
				c-0.4,0-0.7,0.3-0.7,0.6s0.3,0.6,0.7,0.6h0.1c0.4,0,0.7-0.3,0.7-0.6S121.2,0,120.8,0L120.8,0z M117.8,0L117.8,0
				c-0.4,0-0.7,0.3-0.7,0.6s0.3,0.6,0.6,0.6h0.1c0.4,0,0.6-0.3,0.6-0.6S118.1,0,117.8,0L117.8,0z M114.7,0L114.7,0
				c-0.4,0-0.7,0.3-0.7,0.6s0.3,0.6,0.7,0.6h0.1c0.4,0,0.7-0.3,0.7-0.6S115.1,0,114.7,0L114.7,0z M111.7,0L111.7,0
				c-0.4,0-0.7,0.3-0.7,0.6s0.3,0.6,0.7,0.6h0.1c0.4,0,0.7-0.3,0.7-0.6S112,0,111.7,0L111.7,0z M108.6,0L108.6,0
				c-0.4,0-0.7,0.3-0.7,0.6s0.3,0.6,0.6,0.6h0.1c0.4,0,0.6-0.3,0.6-0.6S109,0,108.6,0L108.6,0z M105.6,0L105.6,0
				c-0.4,0-0.7,0.3-0.7,0.6s0.3,0.6,0.6,0.6h0.1c0.4,0,0.7-0.3,0.7-0.6S105.9,0,105.6,0L105.6,0z M102.5,0L102.5,0
				c-0.4,0-0.7,0.3-0.7,0.6s0.3,0.6,0.7,0.6h0.1c0.4,0,0.7-0.3,0.7-0.6S102.9,0,102.5,0L102.5,0z M99.4,0L99.4,0
				c-0.4,0-0.7,0.3-0.7,0.6s0.3,0.6,0.6,0.6h0.1c0.4,0,0.6-0.3,0.6-0.6S99.8,0,99.4,0L99.4,0z M96.4,0L96.4,0
				c-0.4,0-0.7,0.3-0.7,0.6s0.3,0.6,0.6,0.6h0.1C96.8,1.3,97,1,97,0.6S96.8,0,96.4,0L96.4,0z M93.3,0L93.3,0c-0.4,0-0.7,0.3-0.7,0.6
				s0.3,0.6,0.7,0.6h0.1C93.7,1.3,94,1,94,0.6S93.7,0,93.3,0L93.3,0z M90.3,0L90.3,0c-0.4,0-0.7,0.3-0.7,0.6s0.3,0.6,0.7,0.6h0.1
				c0.4,0,0.6-0.3,0.6-0.6S90.6,0,90.3,0L90.3,0z M87.2,0L87.2,0c-0.4,0-0.7,0.3-0.7,0.6s0.3,0.6,0.6,0.6h0.1c0.4,0,0.6-0.3,0.6-0.6
				S87.6,0,87.2,0L87.2,0z M84.2,0L84.2,0c-0.4,0-0.7,0.3-0.7,0.6s0.3,0.6,0.7,0.6h0.1c0.4,0,0.7-0.3,0.7-0.6S84.5,0,84.2,0L84.2,0z
				 M81.1,0L81.1,0c-0.4,0-0.7,0.3-0.7,0.6s0.3,0.6,0.7,0.6h0.1c0.4,0,0.6-0.3,0.6-0.6S81.5,0,81.1,0L81.1,0z M78.1,0L78.1,0
				c-0.4,0-0.7,0.3-0.7,0.6s0.3,0.6,0.6,0.6h0.1c0.4,0,0.6-0.3,0.6-0.6S78.4,0,78.1,0L78.1,0z M75,0L75,0c-0.4,0-0.7,0.3-0.7,0.6
				s0.3,0.6,0.7,0.6H75c0.4,0,0.7-0.3,0.7-0.6S75.4,0,75,0L75,0z M72,0L72,0c-0.4,0-0.7,0.3-0.7,0.6s0.3,0.6,0.7,0.6H72
				c0.4,0,0.7-0.3,0.7-0.6S72.3,0,72,0L72,0z M68.9,0L68.9,0c-0.4,0-0.7,0.3-0.7,0.6s0.3,0.6,0.6,0.6h0.1c0.4,0,0.6-0.3,0.6-0.6
				S69.3,0,68.9,0L68.9,0z M65.8,0L65.8,0c-0.4,0-0.7,0.3-0.7,0.6s0.3,0.6,0.7,0.6h0.1c0.4,0,0.7-0.3,0.7-0.6S66.2,0,65.8,0L65.8,0z
				 M62.8,0L62.8,0c-0.4,0-0.7,0.3-0.7,0.6s0.3,0.6,0.7,0.6h0.1c0.4,0,0.7-0.3,0.7-0.6S63.1,0,62.8,0L62.8,0z M59.7,0L59.7,0
				C59.3,0,59,0.3,59,0.6s0.3,0.6,0.7,0.6h0.1c0.4,0,0.7-0.3,0.7-0.6S60.1,0,59.7,0L59.7,0z M56.7,0L56.7,0C56.3,0,56,0.3,56,0.6
				s0.3,0.6,0.7,0.6h0.1c0.4,0,0.7-0.3,0.7-0.6S57,0,56.7,0L56.7,0z M53.6,0L53.6,0c-0.4,0-0.7,0.3-0.7,0.6s0.3,0.6,0.7,0.6h0.1
				c0.4,0,0.7-0.3,0.7-0.6S54,0,53.6,0L53.6,0z M50.6,0L50.6,0c-0.4,0-0.7,0.3-0.7,0.6s0.3,0.6,0.7,0.6h0.1c0.4,0,0.7-0.3,0.7-0.6
				S50.9,0,50.6,0L50.6,0z M47.5,0L47.5,0c-0.4,0-0.7,0.3-0.7,0.6s0.3,0.6,0.7,0.6h0.1c0.4,0,0.7-0.3,0.7-0.6S47.9,0,47.5,0L47.5,0z
				 M44.5,0L44.5,0c-0.4,0-0.7,0.3-0.7,0.6s0.3,0.6,0.7,0.6h0.1c0.4,0,0.7-0.3,0.7-0.6S44.8,0,44.5,0L44.5,0z M41.4,0L41.4,0
				c-0.4,0-0.7,0.3-0.7,0.6s0.3,0.6,0.7,0.6h0.1c0.4,0,0.7-0.3,0.7-0.6S41.8,0,41.4,0L41.4,0z M38.3,0L38.3,0
				c-0.4,0-0.7,0.3-0.7,0.6s0.3,0.6,0.7,0.6h0.1C38.7,1.3,39,1,39,0.6S38.7,0,38.3,0L38.3,0z M35.3,0L35.3,0c-0.4,0-0.7,0.3-0.7,0.6
				s0.3,0.6,0.7,0.6h0.1c0.4,0,0.7-0.3,0.7-0.6S35.7,0,35.3,0L35.3,0z M32.2,0L32.2,0c-0.4,0-0.7,0.3-0.7,0.6s0.3,0.6,0.6,0.6h0.1
				c0.4,0,0.7-0.3,0.7-0.6S32.6,0,32.2,0L32.2,0z M29.2,0L29.2,0c-0.4,0-0.7,0.3-0.7,0.6s0.3,0.6,0.6,0.6h0.1c0.4,0,0.6-0.3,0.6-0.6
				S29.5,0,29.2,0L29.2,0z M26.1,0L26.1,0c-0.4,0-0.7,0.3-0.7,0.6s0.3,0.6,0.6,0.6h0.1c0.4,0,0.6-0.3,0.6-0.6S26.5,0,26.1,0L26.1,0z
				 M23.1,0L23.1,0c-0.4,0-0.7,0.3-0.7,0.6s0.3,0.6,0.6,0.6h0.1c0.4,0,0.6-0.3,0.6-0.6S23.4,0,23.1,0L23.1,0z M20,0L20,0
				c-0.4,0-0.7,0.3-0.7,0.6s0.3,0.6,0.6,0.6H20c0.4,0,0.6-0.3,0.6-0.6S20.4,0,20,0L20,0z M17,0L17,0c-0.4,0-0.7,0.3-0.7,0.6
				s0.3,0.6,0.6,0.6H17c0.4,0,0.6-0.3,0.6-0.6S17.3,0,17,0L17,0z M13.9,0L13.9,0c-0.4,0-0.7,0.3-0.7,0.6s0.3,0.6,0.6,0.6h0.1
				c0.4,0,0.6-0.3,0.6-0.6S14.3,0,13.9,0L13.9,0z M10.9,0L10.9,0c-0.4,0-0.7,0.3-0.7,0.6s0.3,0.6,0.6,0.6h0.1c0.4,0,0.6-0.3,0.6-0.6
				S11.2,0,10.9,0L10.9,0z M7.8,0L7.8,0C7.4,0,7.1,0.3,7.1,0.6s0.3,0.6,0.7,0.6h0.1c0.4,0,0.6-0.3,0.6-0.6S8.2,0,7.8,0L7.8,0z
				 M4.8,0C4.8,0,4.8,0,4.8,0C4.7,0,4.7,0,4.8,0L4.8,0C4.7,0,4.7,0,4.8,0C4.7,0,4.7,0,4.8,0C4.7,0,4.7,0,4.8,0
				C4.3,0,4.1,0.3,4.1,0.7c0,0.3,0.3,0.6,0.7,0.6c0,0,0,0,0,0l0,0c0.4,0,0.6-0.3,0.6-0.7C5.4,0.3,5.1,0,4.8,0L4.8,0z M2.3,0.9
				c-0.1,0-0.3,0-0.4,0.1c0,0,0,0,0,0l0,0c0,0,0,0,0,0c0,0,0,0,0,0c0,0,0,0,0,0c0,0,0,0,0,0c0,0,0,0,0,0C1.6,1.3,1.6,1.7,1.8,2
				c0.1,0.2,0.3,0.2,0.5,0.2c0.1,0,0.3,0,0.4-0.1l0,0C3,1.9,3.1,1.5,2.8,1.2C2.7,1,2.5,0.9,2.3,0.9L2.3,0.9z M0.8,3.1
				c-0.3,0-0.5,0.2-0.6,0.5c0,0,0,0,0,0c0,0,0,0,0,0v0c0,0,0,0,0,0C0.1,3.9,0.3,4.3,0.6,4.4c0.1,0,0.1,0,0.2,0
				c0.3,0,0.5-0.2,0.6-0.5l0,0C1.6,3.6,1.4,3.2,1,3.1C1,3.1,0.9,3.1,0.8,3.1L0.8,3.1z M0.6,5.9C0.3,5.9,0,6.2,0,6.6v0.1
				C0,7,0.3,7.3,0.6,7.3S1.3,7,1.3,6.6V6.6C1.3,6.2,1,5.9,0.6,5.9L0.6,5.9z M0.6,9C0.3,9,0,9.3,0,9.6v0.1c0,0.4,0.3,0.6,0.6,0.6
				S1.3,10,1.3,9.7V9.6C1.3,9.3,1,9,0.6,9L0.6,9z M0.6,12C0.3,12,0,12.3,0,12.7v0.1c0,0.4,0.3,0.6,0.6,0.6s0.6-0.3,0.6-0.6v-0.1
				C1.3,12.3,1,12,0.6,12L0.6,12z M0.6,15.1c-0.4,0-0.6,0.3-0.6,0.6v0.1c0,0.4,0.3,0.6,0.6,0.6s0.6-0.3,0.6-0.6v-0.1
				C1.3,15.4,1,15.1,0.6,15.1L0.6,15.1z M0.6,18.1c-0.4,0-0.6,0.3-0.6,0.7v0.1c0,0.4,0.3,0.6,0.6,0.6s0.6-0.3,0.6-0.6v-0.1
				C1.3,18.4,1,18.1,0.6,18.1L0.6,18.1z M0.6,21.2c-0.4,0-0.6,0.3-0.6,0.6v0.1c0,0.4,0.3,0.6,0.6,0.6s0.6-0.3,0.6-0.6v-0.1
				C1.3,21.5,1,21.2,0.6,21.2L0.6,21.2z M0.6,24.2c-0.4,0-0.6,0.3-0.6,0.6V25c0,0.4,0.3,0.6,0.6,0.6s0.6-0.3,0.6-0.6v-0.1
				C1.3,24.5,1,24.2,0.6,24.2L0.6,24.2z M0.6,27.3C0.3,27.3,0,27.6,0,28V28c0,0.4,0.3,0.6,0.6,0.6s0.6-0.3,0.6-0.6V28
				C1.3,27.6,1,27.3,0.6,27.3L0.6,27.3z M0.6,30.4C0.3,30.4,0,30.7,0,31v0.1c0,0.4,0.3,0.6,0.6,0.6s0.6-0.3,0.6-0.6V31
				C1.3,30.7,1,30.4,0.6,30.4L0.6,30.4z M0.6,33.4c-0.4,0-0.6,0.3-0.6,0.7v0.1c0,0.4,0.3,0.7,0.6,0.7s0.6-0.3,0.6-0.7v-0.1
				C1.3,33.7,1,33.4,0.6,33.4L0.6,33.4z M1,36.1c-0.1,0-0.2,0-0.3,0.1c-0.3,0.1-0.5,0.5-0.3,0.9c0,0,0,0,0,0c0,0,0,0,0,0
				c0,0,0,0,0,0c0.1,0.2,0.3,0.4,0.6,0.4c0.1,0,0.2,0,0.3-0.1c0.3-0.2,0.5-0.5,0.3-0.9l0,0C1.5,36.3,1.3,36.1,1,36.1L1,36.1z
				 M2.8,38.1c-0.2,0-0.4,0.1-0.6,0.3c-0.2,0.3-0.1,0.7,0.2,0.9c0,0,0,0,0,0v0c0,0,0,0,0,0c0,0,0,0,0,0c0.1,0.1,0.2,0.1,0.3,0.1
				c0.2,0,0.4-0.1,0.6-0.3c0.2-0.3,0.1-0.7-0.2-0.9l0,0C3,38.1,2.9,38.1,2.8,38.1L2.8,38.1z M5.4,38.7L5.4,38.7
				c-0.4,0-0.7,0.3-0.7,0.6C4.7,39.7,5,40,5.4,40h0.1c0.4,0,0.7-0.3,0.7-0.7C6.1,39,5.8,38.7,5.4,38.7L5.4,38.7z M8.5,38.7L8.5,38.7
				c-0.4,0-0.7,0.3-0.7,0.6c0,0.4,0.3,0.7,0.7,0.7h0.1c0.4,0,0.6-0.3,0.6-0.7C9.1,39,8.8,38.7,8.5,38.7L8.5,38.7z M11.5,38.7
				L11.5,38.7c-0.4,0-0.7,0.3-0.7,0.6c0,0.4,0.3,0.7,0.6,0.7h0.1c0.4,0,0.6-0.3,0.6-0.7C12.2,39,11.9,38.7,11.5,38.7L11.5,38.7z
				 M14.6,38.7L14.6,38.7c-0.4,0-0.7,0.3-0.7,0.6c0,0.4,0.3,0.7,0.6,0.7h0.1c0.4,0,0.6-0.3,0.6-0.7C15.2,39,15,38.7,14.6,38.7
				L14.6,38.7z M17.7,38.7L17.7,38.7c-0.4,0-0.7,0.3-0.7,0.6c0,0.4,0.3,0.7,0.6,0.7h0.1c0.4,0,0.6-0.3,0.6-0.7
				C18.3,39,18,38.7,17.7,38.7L17.7,38.7z M20.7,38.7L20.7,38.7c-0.4,0-0.7,0.3-0.7,0.6c0,0.4,0.3,0.7,0.6,0.7h0.1
				c0.4,0,0.6-0.3,0.6-0.7C21.4,39,21.1,38.7,20.7,38.7L20.7,38.7z M23.8,38.7L23.8,38.7c-0.4,0-0.7,0.3-0.7,0.6
				c0,0.4,0.3,0.7,0.6,0.7h0.1c0.4,0,0.6-0.3,0.6-0.7C24.4,39,24.1,38.7,23.8,38.7L23.8,38.7z M26.8,38.7L26.8,38.7
				c-0.4,0-0.7,0.3-0.7,0.6c0,0.4,0.3,0.7,0.6,0.7h0.1c0.4,0,0.6-0.3,0.6-0.7C27.5,39,27.2,38.7,26.8,38.7L26.8,38.7z M29.9,38.7
				L29.9,38.7c-0.4,0-0.7,0.3-0.7,0.6c0,0.4,0.3,0.7,0.6,0.7h0.1c0.4,0,0.6-0.3,0.6-0.7C30.5,39,30.2,38.7,29.9,38.7L29.9,38.7z
				 M32.9,38.7L32.9,38.7c-0.4,0-0.7,0.3-0.7,0.6c0,0.4,0.3,0.7,0.7,0.7h0.1c0.4,0,0.7-0.3,0.7-0.7C33.6,39,33.3,38.7,32.9,38.7
				L32.9,38.7z M36,38.7L36,38.7c-0.4,0-0.7,0.3-0.7,0.6c0,0.4,0.3,0.7,0.7,0.7H36c0.4,0,0.7-0.3,0.7-0.7C36.6,39,36.3,38.7,36,38.7
				L36,38.7z M39,38.7L39,38.7c-0.4,0-0.7,0.3-0.7,0.6c0,0.4,0.3,0.7,0.7,0.7H39c0.4,0,0.7-0.3,0.7-0.7C39.7,39,39.4,38.7,39,38.7
				L39,38.7z M42.1,38.7L42.1,38.7c-0.4,0-0.7,0.3-0.7,0.6c0,0.4,0.3,0.7,0.7,0.7h0.1c0.4,0,0.7-0.3,0.7-0.7
				C42.7,39,42.5,38.7,42.1,38.7L42.1,38.7z M45.2,38.7L45.2,38.7c-0.4,0-0.7,0.3-0.7,0.6c0,0.4,0.3,0.7,0.7,0.7h0.1
				c0.4,0,0.7-0.3,0.7-0.7C45.8,39,45.5,38.7,45.2,38.7L45.2,38.7z M48.2,38.7L48.2,38.7c-0.4,0-0.7,0.3-0.7,0.6
				c0,0.4,0.3,0.7,0.7,0.7h0.1c0.4,0,0.7-0.3,0.7-0.7C48.9,39,48.6,38.7,48.2,38.7L48.2,38.7z M51.3,38.7L51.3,38.7
				c-0.4,0-0.7,0.3-0.7,0.6c0,0.4,0.3,0.7,0.7,0.7h0.1c0.4,0,0.7-0.3,0.7-0.7C51.9,39,51.6,38.7,51.3,38.7L51.3,38.7z M54.3,38.7
				L54.3,38.7c-0.4,0-0.7,0.3-0.7,0.6c0,0.4,0.3,0.7,0.7,0.7h0.1c0.4,0,0.7-0.3,0.7-0.7C55,39,54.7,38.7,54.3,38.7L54.3,38.7z
				 M57.4,38.7L57.4,38.7c-0.4,0-0.7,0.3-0.7,0.6c0,0.4,0.3,0.7,0.7,0.7h0.1c0.4,0,0.7-0.3,0.7-0.7C58,39,57.7,38.7,57.4,38.7
				L57.4,38.7z M60.4,38.7L60.4,38.7c-0.4,0-0.7,0.3-0.7,0.6c0,0.4,0.3,0.7,0.7,0.7h0.1c0.4,0,0.7-0.3,0.7-0.7
				C61.1,39,60.8,38.7,60.4,38.7L60.4,38.7z M63.5,38.7L63.5,38.7c-0.4,0-0.7,0.3-0.7,0.6c0,0.4,0.3,0.7,0.7,0.7h0.1
				c0.4,0,0.6-0.3,0.6-0.7C64.1,39,63.8,38.7,63.5,38.7L63.5,38.7z M66.5,38.7L66.5,38.7c-0.4,0-0.7,0.3-0.7,0.6
				c0,0.4,0.3,0.7,0.7,0.7h0.1c0.4,0,0.7-0.3,0.7-0.7C67.2,39,66.9,38.7,66.5,38.7L66.5,38.7z M69.6,38.7L69.6,38.7
				c-0.4,0-0.7,0.3-0.7,0.6c0,0.4,0.3,0.7,0.7,0.7h0.1c0.4,0,0.7-0.3,0.7-0.7C70.2,39,69.9,38.7,69.6,38.7L69.6,38.7z M72.6,38.7
				L72.6,38.7c-0.4,0-0.7,0.3-0.7,0.6c0,0.4,0.3,0.7,0.6,0.7h0.1c0.4,0,0.6-0.3,0.6-0.7C73.3,39,73,38.7,72.6,38.7L72.6,38.7z
				 M75.7,38.7L75.7,38.7c-0.4,0-0.7,0.3-0.7,0.6c0,0.4,0.3,0.7,0.7,0.7h0.1c0.4,0,0.7-0.3,0.7-0.7C76.4,39,76.1,38.7,75.7,38.7
				L75.7,38.7z M78.8,38.7L78.8,38.7c-0.4,0-0.7,0.3-0.7,0.6c0,0.4,0.3,0.7,0.7,0.7h0.1c0.4,0,0.7-0.3,0.7-0.7
				C79.4,39,79.1,38.7,78.8,38.7L78.8,38.7z M81.8,38.7L81.8,38.7c-0.4,0-0.7,0.3-0.7,0.6c0,0.4,0.3,0.7,0.6,0.7h0.1
				c0.4,0,0.6-0.3,0.6-0.7C82.5,39,82.2,38.7,81.8,38.7L81.8,38.7z M84.9,38.7L84.9,38.7c-0.4,0-0.7,0.3-0.7,0.6
				c0,0.4,0.3,0.7,0.7,0.7h0.1c0.4,0,0.6-0.3,0.6-0.7C85.5,39,85.2,38.7,84.9,38.7L84.9,38.7z M87.9,38.7L87.9,38.7
				c-0.4,0-0.7,0.3-0.7,0.6c0,0.4,0.3,0.7,0.7,0.7h0.1c0.4,0,0.7-0.3,0.7-0.7C88.6,39,88.3,38.7,87.9,38.7L87.9,38.7z M91,38.7
				L91,38.7c-0.4,0-0.7,0.3-0.7,0.6c0,0.4,0.3,0.7,0.6,0.7H91c0.4,0,0.6-0.3,0.6-0.7C91.6,39,91.3,38.7,91,38.7L91,38.7z M94,38.7
				L94,38.7c-0.4,0-0.7,0.3-0.7,0.6c0,0.4,0.3,0.7,0.7,0.7H94c0.4,0,0.6-0.3,0.6-0.7C94.7,39,94.4,38.7,94,38.7L94,38.7z M97.1,38.7
				L97.1,38.7c-0.4,0-0.7,0.3-0.7,0.6c0,0.4,0.3,0.7,0.7,0.7h0.1c0.4,0,0.7-0.3,0.7-0.7C97.7,39,97.4,38.7,97.1,38.7L97.1,38.7z
				 M100.1,38.7L100.1,38.7c-0.4,0-0.7,0.3-0.7,0.6c0,0.4,0.3,0.7,0.6,0.7h0.1c0.4,0,0.7-0.3,0.7-0.7
				C100.8,39,100.5,38.7,100.1,38.7L100.1,38.7z M103.2,38.7L103.2,38.7c-0.4,0-0.7,0.3-0.7,0.6c0,0.4,0.3,0.7,0.6,0.7h0.1
				c0.4,0,0.6-0.3,0.6-0.7C103.8,39,103.6,38.7,103.2,38.7L103.2,38.7z M106.2,38.7L106.2,38.7c-0.4,0-0.7,0.3-0.7,0.6
				c0,0.4,0.3,0.7,0.7,0.7h0.1c0.4,0,0.7-0.3,0.7-0.7C106.9,39,106.6,38.7,106.2,38.7L106.2,38.7z M109.3,38.7L109.3,38.7
				c-0.4,0-0.7,0.3-0.7,0.6c0,0.4,0.3,0.7,0.6,0.7h0.1c0.4,0,0.7-0.3,0.7-0.7C110,39,109.7,38.7,109.3,38.7L109.3,38.7z M112.4,38.7
				L112.4,38.7c-0.4,0-0.7,0.3-0.7,0.6c0,0.4,0.3,0.7,0.6,0.7h0.1c0.4,0,0.6-0.3,0.6-0.7C113,39,112.7,38.7,112.4,38.7L112.4,38.7z
				 M115.4,38.7L115.4,38.7c-0.4,0-0.7,0.3-0.7,0.6c0,0.4,0.3,0.7,0.7,0.7h0.1c0.4,0,0.7-0.3,0.7-0.7
				C116.1,39,115.8,38.7,115.4,38.7L115.4,38.7z M118.5,38.7L118.5,38.7c-0.4,0-0.7,0.3-0.7,0.6c0,0.4,0.3,0.7,0.7,0.7h0.1
				c0.4,0,0.7-0.3,0.7-0.7C119.1,39,118.8,38.7,118.5,38.7L118.5,38.7z M121.5,38.7L121.5,38.7c-0.4,0-0.7,0.3-0.7,0.6
				c0,0.4,0.3,0.7,0.6,0.7h0.1c0.4,0,0.6-0.3,0.6-0.7C122.2,39,121.9,38.7,121.5,38.7L121.5,38.7z M124.6,38.7L124.6,38.7
				c-0.4,0-0.7,0.3-0.7,0.6c0,0.4,0.3,0.7,0.7,0.7h0.1c0.4,0,0.7-0.3,0.7-0.7C125.2,39,124.9,38.7,124.6,38.7L124.6,38.7z
				 M127.6,38.7L127.6,38.7c-0.4,0-0.7,0.3-0.7,0.6c0,0.4,0.3,0.7,0.7,0.7h0.1c0.4,0,0.7-0.3,0.7-0.7C128.3,39,128,38.7,127.6,38.7
				L127.6,38.7z M130.6,38.7C130.6,38.7,130.5,38.7,130.6,38.7l-0.1,0c-0.4,0-0.6,0.4-0.6,0.7c0,0.3,0.3,0.6,0.6,0.6
				c0,0,0.1,0,0.1,0c0,0,0,0,0,0c0,0,0,0,0,0c0,0,0,0,0,0c0,0,0,0,0,0c0,0,0,0,0,0c0.4-0.1,0.6-0.4,0.5-0.7
				C131.2,38.9,130.9,38.7,130.6,38.7L130.6,38.7z M133,37.5c-0.2,0-0.3,0.1-0.4,0.2l0,0c-0.3,0.2-0.3,0.7,0,0.9
				c0.1,0.1,0.3,0.2,0.5,0.2c0.2,0,0.3-0.1,0.4-0.2c0,0,0,0,0,0l0,0c0,0,0,0,0,0c0,0,0,0,0,0c0,0,0,0,0,0c0.3-0.2,0.3-0.7,0-0.9
				C133.3,37.6,133.1,37.5,133,37.5L133,37.5z M134.3,35.3c-0.3,0-0.6,0.2-0.6,0.5l0,0c-0.1,0.4,0.1,0.7,0.5,0.8c0,0,0.1,0,0.1,0
				c0.3,0,0.6-0.2,0.6-0.5c0,0,0,0,0,0c0,0,0,0,0,0c0,0,0,0,0,0v0c0,0,0,0,0,0c0,0,0,0,0,0c0.1-0.3-0.1-0.7-0.5-0.8
				C134.3,35.3,134.3,35.3,134.3,35.3L134.3,35.3z M134.4,32.3c-0.4,0-0.6,0.3-0.6,0.7V33c0,0.4,0.3,0.7,0.6,0.7
				c0.4,0,0.6-0.3,0.6-0.7V33C135,32.6,134.7,32.3,134.4,32.3L134.4,32.3z M134.4,29.3c-0.4,0-0.6,0.3-0.6,0.6V30
				c0,0.4,0.3,0.6,0.6,0.6c0.4,0,0.6-0.3,0.6-0.6v-0.1C135,29.6,134.7,29.3,134.4,29.3L134.4,29.3z M134.4,26.2
				c-0.4,0-0.6,0.3-0.6,0.6v0.1c0,0.4,0.3,0.6,0.6,0.6c0.4,0,0.6-0.3,0.6-0.6v-0.1C135,26.5,134.7,26.2,134.4,26.2L134.4,26.2z
				 M134.4,23.2c-0.4,0-0.6,0.3-0.6,0.6v0.1c0,0.4,0.3,0.6,0.6,0.6c0.4,0,0.6-0.3,0.6-0.6v-0.1C135,23.5,134.7,23.2,134.4,23.2
				L134.4,23.2z M134.4,20.1c-0.4,0-0.6,0.3-0.6,0.6v0.1c0,0.4,0.3,0.6,0.6,0.6c0.4,0,0.6-0.3,0.6-0.6v-0.1
				C135,20.4,134.7,20.1,134.4,20.1L134.4,20.1z M134.4,17.1c-0.4,0-0.6,0.3-0.6,0.6v0.1c0,0.4,0.3,0.6,0.6,0.6
				c0.4,0,0.6-0.3,0.6-0.6v-0.1C135,17.4,134.7,17.1,134.4,17.1L134.4,17.1z M134.4,14c-0.4,0-0.6,0.3-0.6,0.6v0.1
				c0,0.4,0.3,0.6,0.6,0.6c0.4,0,0.6-0.3,0.6-0.6v-0.1C135,14.3,134.7,14,134.4,14L134.4,14z M134.4,11c-0.4,0-0.6,0.3-0.6,0.6v0.1
				c0,0.4,0.3,0.6,0.6,0.6c0.4,0,0.6-0.3,0.6-0.6v-0.1C135,11.3,134.7,11,134.4,11L134.4,11z M134.4,7.9c-0.4,0-0.6,0.3-0.6,0.7v0.1
				c0,0.4,0.3,0.6,0.6,0.6c0.4,0,0.6-0.3,0.6-0.6V8.6C135,8.2,134.7,7.9,134.4,7.9L134.4,7.9z M134.4,4.8c-0.4,0-0.6,0.3-0.6,0.7
				v0.1c0,0.4,0.3,0.7,0.6,0.7c0.4,0,0.6-0.3,0.6-0.7V5.5C135,5.1,134.7,4.8,134.4,4.8L134.4,4.8z M133.8,2.2c-0.1,0-0.2,0-0.3,0.1
				c-0.3,0.2-0.4,0.6-0.2,0.9l0,0c0.1,0.2,0.3,0.3,0.6,0.3c0.1,0,0.2,0,0.3-0.1c0.3-0.2,0.4-0.6,0.3-0.9c0,0,0,0,0,0c0,0,0,0,0,0
				c0,0,0,0,0,0c0,0,0,0,0,0C134.2,2.3,134,2.2,133.8,2.2L133.8,2.2z M131.9,0.4c-0.2,0-0.5,0.1-0.6,0.4c-0.2,0.3,0,0.7,0.3,0.9l0,0
				c0.1,0,0.2,0.1,0.3,0.1c0.2,0,0.5-0.1,0.6-0.4c0.2-0.3,0-0.7-0.3-0.9c0,0,0,0,0,0c0,0,0,0,0,0c0,0,0,0,0,0h0c0,0,0,0,0,0
				C132.1,0.4,132,0.4,131.9,0.4L131.9,0.4z"/>
		</g>
	</g>
	<g>
		<path class="st1" d="M47.4,10.2c0,0.8-0.2,1.5-0.7,2c-0.6,0.6-1.3,0.9-2.2,0.9c-0.9,0-1.6-0.3-2.2-0.9c-0.6-0.6-0.9-1.3-0.9-2.2
			c0-0.9,0.3-1.6,0.9-2.2c0.6-0.6,1.3-0.9,2.2-0.9c0.4,0,0.8,0.1,1.2,0.3c0.4,0.2,0.7,0.4,0.9,0.7l-0.5,0.5
			c-0.4-0.5-0.9-0.7-1.6-0.7c-0.6,0-1.2,0.2-1.6,0.7c-0.5,0.4-0.7,1-0.7,1.7s0.2,1.3,0.7,1.7s1,0.7,1.6,0.7c0.7,0,1.2-0.2,1.7-0.7
			c0.3-0.3,0.5-0.7,0.5-1.2h-2.2V9.8h2.9C47.4,9.9,47.4,10.1,47.4,10.2z"/>
		<path class="st1" d="M52,7.7h-2.7v1.9h2.5v0.7h-2.5v1.9H52V13h-3.5V7H52V7.7z"/>
		<path class="st1" d="M55.3,13h-0.8V7.7h-1.7V7H57v0.7h-1.7C55.3,7.7,55.3,13,55.3,13z"/>
		<path class="st1" d="M59.9,13V7h0.8v6H59.9z"/>
		<path class="st1" d="M64.1,13h-0.8V7.7h-1.7V7h4.1v0.7h-1.7V13z"/>
		<path class="st1" d="M73.6,12.2c-0.6,0.6-1.3,0.9-2.2,0.9s-1.6-0.3-2.2-0.9c-0.6-0.6-0.9-1.3-0.9-2.2s0.3-1.6,0.9-2.2
			c0.6-0.6,1.3-0.9,2.2-0.9c0.9,0,1.6,0.3,2.2,0.9s0.9,1.3,0.9,2.2C74.5,10.9,74.2,11.6,73.6,12.2z M69.8,11.7
			c0.4,0.4,1,0.7,1.6,0.7c0.6,0,1.2-0.2,1.6-0.7c0.4-0.4,0.7-1,0.7-1.7S73.5,8.7,73,8.3c-0.4-0.5-1-0.7-1.6-0.7
			c-0.6,0-1.2,0.2-1.6,0.7c-0.4,0.4-0.7,1-0.7,1.7S69.3,11.3,69.8,11.7z"/>
		<path class="st1" d="M75.6,13V7h0.9l2.9,4.7h0l0-1.2V7h0.8v6h-0.8l-3.1-4.9h0l0,1.2V13H75.6z"/>
	</g>
	<path class="st0" d="M68.1,21.8c-2.4,0-4.3,1.8-4.3,4.3c0,2.4,1.9,4.3,4.3,4.3c2.4,0,4.3-1.8,4.3-4.3
		C72.4,23.5,70.5,21.8,68.1,21.8z M68.1,28.6c-1.3,0-2.4-1.1-2.4-2.6c0-1.5,1.1-2.6,2.4-2.6c1.3,0,2.4,1,2.4,2.6
		C70.5,27.5,69.4,28.6,68.1,28.6z M58.8,21.8c-2.4,0-4.3,1.8-4.3,4.3c0,2.4,1.9,4.3,4.3,4.3c2.4,0,4.3-1.8,4.3-4.3
		C63.1,23.5,61.2,21.8,58.8,21.8z M58.8,28.6c-1.3,0-2.4-1.1-2.4-2.6c0-1.5,1.1-2.6,2.4-2.6c1.3,0,2.4,1,2.4,2.6
		C61.2,27.5,60.1,28.6,58.8,28.6z M47.7,23.1v1.8h4.3c-0.1,1-0.5,1.8-1,2.3c-0.6,0.6-1.6,1.3-3.3,1.3c-2.7,0-4.7-2.1-4.7-4.8
		s2.1-4.8,4.7-4.8c1.4,0,2.5,0.6,3.3,1.3l1.3-1.3c-1.1-1-2.5-1.8-4.5-1.8c-3.6,0-6.7,3-6.7,6.6s3.1,6.6,6.7,6.6c2,0,3.4-0.6,4.6-1.9
		c1.2-1.2,1.6-2.9,1.6-4.2c0-0.4,0-0.8-0.1-1.1L47.7,23.1L47.7,23.1z M93.1,24.5c-0.4-1-1.4-2.7-3.6-2.7c-2.2,0-4,1.7-4,4.3
		c0,2.4,1.8,4.3,4.2,4.3c1.9,0,3.1-1.2,3.5-1.9l-1.4-1c-0.5,0.7-1.1,1.2-2.1,1.2s-1.6-0.4-2.1-1.3l5.7-2.4L93.1,24.5z M87.3,25.9
		c0-1.6,1.3-2.5,2.2-2.5c0.7,0,1.4,0.4,1.6,0.9L87.3,25.9z M82.6,30h1.9V17.5h-1.9V30z M79.6,22.7L79.6,22.7c-0.5-0.5-1.3-1-2.3-1
		c-2.1,0-4.1,1.9-4.1,4.3c0,2.4,1.9,4.2,4.1,4.2c1,0,1.8-0.5,2.2-1h0.1v0.6c0,1.6-0.9,2.5-2.3,2.5c-1.1,0-1.9-0.8-2.1-1.5l-1.6,0.7
		c0.5,1.1,1.7,2.5,3.8,2.5c2.2,0,4-1.3,4-4.4V22h-1.8L79.6,22.7L79.6,22.7z M77.4,28.6c-1.3,0-2.4-1.1-2.4-2.6
		c0-1.5,1.1-2.6,2.4-2.6c1.3,0,2.3,1.1,2.3,2.6C79.7,27.5,78.7,28.6,77.4,28.6z M101.8,17.5h-4.5V30h1.9v-4.7h2.6
		c2.1,0,4.1-1.5,4.1-3.9C105.9,19,103.9,17.5,101.8,17.5z M101.9,23.5h-2.7v-4.3h2.7c1.4,0,2.2,1.2,2.2,2.1
		C104,22.3,103.2,23.5,101.9,23.5z M113.4,21.7c-1.4,0-2.8,0.6-3.3,1.9l1.7,0.7c0.4-0.7,1-0.9,1.7-0.9c1,0,1.9,0.6,2,1.6v0.1
		c-0.3-0.2-1.1-0.5-1.9-0.5c-1.8,0-3.6,1-3.6,2.8c0,1.7,1.5,2.8,3.1,2.8c1.3,0,1.9-0.6,2.4-1.2h0.1v1h1.8v-4.8
		C117.2,23,115.5,21.7,113.4,21.7z M113.2,28.6c-0.6,0-1.5-0.3-1.5-1.1c0-1,1.1-1.3,2-1.3c0.8,0,1.2,0.2,1.7,0.4
		C115.2,27.8,114.2,28.6,113.2,28.6z M123.7,22l-2.1,5.4h-0.1l-2.2-5.4h-2l3.3,7.6l-1.9,4.2h1.9l5.1-11.8H123.7z M106.9,30h1.9V17.5
		h-1.9V30z"/>
	<g>
		
			<linearGradient id="SVGID_1_" gradientUnits="userSpaceOnUse" x1="21.7613" y1="-628.7541" x2="4.9784" y2="-645.537" gradientTransform="matrix(1 0 0 -1 4.000000e-02 -620.0455)">
			<stop  offset="0" style="stop-color:#00A0FF"/>
			<stop  offset="6.599999e-03" style="stop-color:#00A1FF"/>
			<stop  offset="0.2601" style="stop-color:#00BEFF"/>
			<stop  offset="0.5122" style="stop-color:#00D2FF"/>
			<stop  offset="0.7604" style="stop-color:#00DFFF"/>
			<stop  offset="1" style="stop-color:#00E3FF"/>
		</linearGradient>
		<path class="st2" d="M10.4,7.5C10.1,7.8,10,8.3,10,8.9v22.1c0,0.6,0.2,1.1,0.5,1.4l0.1,0.1l12.4-12.4V20v-0.1L10.4,7.5L10.4,7.5z"
			/>
		
			<linearGradient id="SVGID_00000140012560710566635780000002109036514581215926_" gradientUnits="userSpaceOnUse" x1="33.7935" y1="-640.0465" x2="9.5976" y2="-640.0465" gradientTransform="matrix(1 0 0 -1 4.000000e-02 -620.0455)">
			<stop  offset="0" style="stop-color:#FFE000"/>
			<stop  offset="0.4087" style="stop-color:#FFBD00"/>
			<stop  offset="0.7754" style="stop-color:#FFA500"/>
			<stop  offset="1" style="stop-color:#FF9C00"/>
		</linearGradient>
		<path style="fill:url(#SVGID_00000140012560710566635780000002109036514581215926_);" d="M27,24.3l-4.1-4.1V20v-0.1l4.1-4.1
			l0.1,0.1l4.9,2.8c1.4,0.8,1.4,2.1,0,2.9L27,24.3L27,24.3z"/>
		
			<linearGradient id="SVGID_00000009586311395663053210000015847087859915153041_" gradientUnits="userSpaceOnUse" x1="24.7883" y1="-642.3402" x2="2.0292" y2="-665.0992" gradientTransform="matrix(1 0 0 -1 4.000000e-02 -620.0455)">
			<stop  offset="0" style="stop-color:#FF3A44"/>
			<stop  offset="1" style="stop-color:#C31162"/>
		</linearGradient>
		<path style="fill:url(#SVGID_00000009586311395663053210000015847087859915153041_);" d="M27.1,24.2L22.9,20L10.4,32.5
			c0.5,0.5,1.2,0.5,2.1,0.1L27.1,24.2"/>
		
			<linearGradient id="SVGID_00000147901232358083582900000009324729617863180984_" gradientUnits="userSpaceOnUse" x1="7.2571" y1="-620.2216" x2="17.4194" y2="-630.3839" gradientTransform="matrix(1 0 0 -1 4.000000e-02 -620.0455)">
			<stop  offset="0" style="stop-color:#32A071"/>
			<stop  offset="6.850000e-02" style="stop-color:#2DA771"/>
			<stop  offset="0.4762" style="stop-color:#15CF74"/>
			<stop  offset="0.8009" style="stop-color:#06E775"/>
			<stop  offset="1" style="stop-color:#00F076"/>
		</linearGradient>
		<path style="fill:url(#SVGID_00000147901232358083582900000009324729617863180984_);" d="M27.1,15.8L12.5,7.5
			c-0.9-0.5-1.6-0.4-2.1,0.1L22.9,20L27.1,15.8z"/>
		<g>
			<path class="st6" d="M27,24.1l-14.5,8.2c-0.8,0.5-1.5,0.4-2,0l0,0l-0.1,0.1l0,0l0.1,0.1l0,0c0.5,0.4,1.2,0.5,2,0L27,24.1L27,24.1
				z"/>
			<path class="st7" d="M10.4,32.3C10.1,32,10,31.5,10,30.9v0.1c0,0.6,0.2,1.1,0.5,1.4V32.3L10.4,32.3z"/>
		</g>
		<path class="st7" d="M32,21.3l-5,2.8l0.1,0.1l4.9-2.8c0.7-0.4,1-0.9,1-1.4l0,0C33,20.5,32.6,20.9,32,21.3z"/>
		<path class="st8" d="M12.5,7.6L32,18.7c0.6,0.4,1,0.8,1,1.3l0,0c0-0.5-0.3-1-1-1.4L12.5,7.5C11.1,6.7,10,7.3,10,8.9v0.1
			C10,7.5,11.1,6.8,12.5,7.6z"/>
	</g>
</g>
</svg>
